<?xml version="1.0" encoding="UTF-8" standalone="no"?>
<!-- Created with Inkscape (http://www.inkscape.org/) -->

<svg
   width="43.91mm"
   height="43.223999mm"
   viewBox="0 0 43.91 43.223999"
   version="1.1"
   id="svg1"
   xmlns="http://www.w3.org/2000/svg"
   xmlns:svg="http://www.w3.org/2000/svg">
  <defs
     id="defs1" />
  <g
     id="layer1"
     transform="translate(-4.994845,-3.6890235)">
    <g
       id="layer1-3"
       style="display:inline"
       transform="translate(32.632039,4.144084)">
      <path
         id="path1"
         style="fill:none;stroke:#ffffff;stroke-width:2.1238;stroke-dasharray:none;stroke-opacity:1"
         d="m 2.1711211,37.771459 9.9590329,0.03357 -0.04607,-9.434049 C 5.9084247,28.314552 2.0780585,32.415199 2.1711211,37.771459 Z" />
      <path
         style="fill:#ffffff;fill-opacity:1;stroke:#000000;stroke-width:0;stroke-dasharray:none;stroke-opacity:1;paint-order:stroke markers fill"
         d="m 3.6513289,31.364683 -3.9818782,-3.842513 -3.4045033,3.225322 c -0.9357408,-0.358369 -1.6524794,-0.97556 -1.9909391,-1.851574 l 3.5040527,-3.28505 -5.1366229,-4.997254 2.369217,5.674173 c 0.1815996,0.430968 -0.2624449,0.636894 -0.4778254,0.258823 L -15.541319,10.977471 c 0,0 -0.199094,-0.537554 0.298641,-0.238913 0.497734,0.29864 15.94741693,9.934784 15.94741693,9.934784 0.35836887,0.278731 0,0.856103 -0.55746282,0.557463 l -5.27598671,-2.170124 4.7981613,4.698616 3.364687,-3.344777 c 0.8760134,0.199094 1.6723894,1.114926 2.0307582,1.911301 l -3.5040527,3.245229 3.9221499,3.842512 c -0.3097175,0.929153 -0.874356,1.528779 -1.8316642,1.951121 z"
         id="path6" />
      <path
         style="display:inline;fill:#ffffff;fill-opacity:1;stroke:#000000;stroke-width:0;stroke-dasharray:none;stroke-opacity:1;paint-order:stroke markers fill"
         d="m 10.428784,24.840118 -0.042,-10.937421 -2.3723774,5.672852 C 7.8451792,19.998624 7.3899795,19.950019 7.4945038,19.417443 L 11.493029,1.309487 c 0,0 0.242571,-0.51938355 0.379841,0.044606 0.137267,0.563991 4.137367,18.327644 4.137367,18.327644 0.119456,0.472847 -0.599216,0.562443 -0.788355,-0.005 l -2.163297,-5.278801 0.0654,10.424087 c -0.844684,-0.126703 -1.766053,-0.108633 -2.695204,0.01807 z"
         id="path6-7-3" />
      <path
         style="display:inline;fill:#ffffff;fill-opacity:1;stroke:#000000;stroke-width:0;stroke-dasharray:none;stroke-opacity:1;paint-order:stroke markers fill"
         d="m -2.3786621,36.179226 -10.9449839,-0.04279 5.5805999,-2.370707 c 0.3882335,-0.179185 0.2440007,-0.619183 -0.1790741,-0.519637 l -17.9570678,3.995122 c 0,0 -0.509925,0.242404 0.05992,0.379643 0.569816,0.137229 18.5037094,4.136433 18.5037094,4.136433 0.689483,0.169336 0.7459857,-0.496854 -0.036667,-0.787938 l -5.3685414,-2.162505 10.4323225,0.06615 c -0.1791849,-0.955651 -0.2096764,-1.817766 -0.090217,-2.693779 z"
         id="path6-7-3-2-6" />
    </g>
  </g>
</svg>
