<?xml version="1.0" encoding="UTF-8" standalone="no"?>
<!-- Created with Inkscape (http://www.inkscape.org/) -->

<svg
   width="90mm"
   height="82.403931mm"
   viewBox="0 0 90 82.40393"
   version="1.1"
   id="svg1"
   xmlns="http://www.w3.org/2000/svg"
   xmlns:svg="http://www.w3.org/2000/svg">
  <defs
     id="defs1" />
  <g
     id="layer1"
     transform="translate(-4.994845,-3.6890235)">
    <g
       id="layer1-3"
       style="display:inline"
       transform="translate(32.632039,4.144084)">
      <circle
         style="fill:none;stroke:#770000;stroke-width:2.263;stroke-dasharray:none;stroke-opacity:1"
         id="path1"
         cx="12.955527"
         cy="41.865196"
         r="10.114369" />
      <path
         id="rect1"
         style="fill:#770000;fill-opacity:1;stroke:#000000;stroke-width:0;stroke-dasharray:none;stroke-opacity:1;paint-order:stroke markers fill"
         d="m 11.533846,52.709772 v 7.488434 H 4.4061164 c -0.38252,0.94505 -0.285015,1.81337 0,2.83342 h 7.1277296 v 14.51177 c 0.840043,0.39002 2.069799,0.63003 2.969845,0 v -14.51177 h 7.12928 c 0.367519,-1.00505 0.375019,-1.85087 0,-2.83342 h -7.12928 v -7.488434 c -0.954643,-0.551571 -2.227345,-0.381857 -2.969845,0 z" />
      <path
         style="fill:#770000;fill-opacity:1;stroke:#000000;stroke-width:0;stroke-dasharray:none;stroke-opacity:1;paint-order:stroke markers fill"
         d="m 4.4005095,34.908936 -4.2428582,-4.094359 -3.6276409,3.436716 c -0.997071,-0.381857 -1.760786,-1.0395 -2.121429,-1.972929 l 3.733715,-3.500359 -5.473287,-5.324784 2.5245,6.04607 c 0.193502,0.459214 -0.279646,0.678637 -0.509143,0.275786 L -16.050062,13.185507 c 0,0 -0.212143,-0.572786 0.318214,-0.254572 0.530357,0.318214 16.9926424,10.585929 16.9926424,10.585929 0.381857,0.297 0,0.912214 -0.594,0.594 l -5.621785,-2.312358 5.1126419,5.006573 3.5852151,-3.564001 c 0.933429,0.212143 1.782001,1.188001 2.163858,2.036572 l -3.733715,3.457927 4.1792151,4.094358 c -0.330017,0.990051 -0.931663,1.628978 -1.951715,2.079001 z"
         id="path6" />
      <path
         style="display:inline;fill:#770000;fill-opacity:1;stroke:#000000;stroke-width:0;stroke-dasharray:none;stroke-opacity:1;paint-order:stroke markers fill"
         d="m 20.091094,33.767973 11.482333,-10.979178 -6.12557,2.324963 c -0.477321,0.180321 -0.879467,-0.15196 -0.258949,-0.517906 L 42.121417,14.410964 c 0,0 0.57943,-0.193253 0.24401,0.326388 -0.33543,0.519642 -11.13724,16.636527 -11.13724,16.636527 -0.4455,0.583393 -0.84614,0.01855 -0.57421,-0.613151 l 2.4954,-5.542975 L 22.105005,35.78678 C 21.107934,35.468566 20.36688,34.563509 20.091094,33.767973 Z"
         id="path6-7" />
      <path
         style="display:inline;fill:#770000;fill-opacity:1;stroke:#000000;stroke-width:0;stroke-dasharray:none;stroke-opacity:1;paint-order:stroke markers fill"
         d="M 11.622171,27.956739 11.577421,16.302458 9.0495536,22.34712 c -0.180321,0.450804 -0.665355,0.399013 -0.55398,-0.168469 L 12.756169,2.8838657 c 0,0 0.258469,-0.553425 0.404736,0.04753 0.146264,0.600956 4.408538,19.5288713 4.408538,19.5288713 0.127286,0.503839 -0.638489,0.599307 -0.840025,-0.0053 l -2.305084,-5.624783 0.06969,11.107301 c -0.900046,-0.135007 -1.881803,-0.115753 -2.871853,0.01925 z"
         id="path6-7-3" />
      <path
         style="display:inline;fill:#770000;fill-opacity:1;stroke:#000000;stroke-width:0;stroke-dasharray:none;stroke-opacity:1;paint-order:stroke markers fill"
         d="m 27.092692,39.881296 11.654315,0.03405 -6.02742,-2.568699 c -0.48263,-0.201536 -0.42179,-0.701327 0.17221,-0.552827 l 19.26552,4.391036 c 0,0 0.55167,0.262208 -0.0503,0.404409 -0.60194,0.14219 -19.55826,4.276312 -19.55826,4.276312 -0.62317,0.100768 -0.68112,-0.569493 0.011,-0.839975 l 5.64025,-2.266972 -11.107526,-0.0054 c 0.300015,-0.870044 0.210222,-1.911885 2.11e-4,-2.871934 z"
         id="path6-7-3-2" />
      <path
         style="display:inline;fill:#770000;fill-opacity:1;stroke:#000000;stroke-width:0;stroke-dasharray:none;stroke-opacity:1;paint-order:stroke markers fill"
         d="m 23.689402,49.952359 8.311185,8.169967 -2.51536,-6.049867 c -0.16126,-0.38627 0.3033,-0.571273 0.50956,-0.275008 l 10.70932,16.605775 c 0,0 0.21127,0.57311 -0.31863,0.25407 -0.52988,-0.31903 -16.97662,-10.61163 -16.97662,-10.61163 -0.647036,-0.45611 9.54e-4,-0.90596 0.594954,-0.59305 l 5.618286,2.32088 -7.940145,-7.767325 c 1.035053,-0.765039 1.347416,-1.153766 2.00745,-2.053812 z"
         id="path6-7-3-2-1" />
      <path
         style="display:inline;fill:#770000;fill-opacity:1;stroke:#000000;stroke-width:0;stroke-dasharray:none;stroke-opacity:1;paint-order:stroke markers fill"
         d="m -2.0246986,40.039033 -11.6623404,-0.04559 5.9463644,-2.526088 c 0.413679,-0.190929 0.259993,-0.659765 -0.190811,-0.553694 L -27.065495,41.17063 c 0,0 -0.543346,0.258292 0.06385,0.404526 0.607163,0.146223 19.7164784,4.407543 19.7164784,4.407543 0.734673,0.180434 0.794879,-0.529419 -0.03907,-0.839581 l -5.7204064,-2.30424 11.1160774,0.07049 c -0.190929,-1.018286 -0.223419,-1.936906 -0.09613,-2.870335 z"
         id="path6-7-3-2-6" />
      <path
         style="display:inline;fill:#770000;fill-opacity:1;stroke:#000000;stroke-width:0;stroke-dasharray:none;stroke-opacity:1;paint-order:stroke markers fill"
         d="m 2.2337814,49.997172 -8.369291,8.122024 2.484752,-5.963758 c 0.157508,-0.491275 -0.384811,-0.53618 -0.523568,-0.262416 L -14.876656,68.315336 c 0,0 -0.207833,0.56457 0.328499,0.24454 0.536309,-0.32 17.1771954,-10.63531 17.1771954,-10.63531 0.551571,-0.34473 -0.07933,-0.848686 -0.614988,-0.5729 l -5.700705,2.35256 7.996184,-7.722258 c -0.922821,-0.721286 -1.396891,-1.11501 -2.075748,-1.984796 z"
         id="path6-7-3-2-6-4" />
    </g>
    <g
       id="g10"
       style="display:inline"
       transform="translate(32.632039,4.144084)">
      <circle
         style="fill:none;stroke:#ffffff;stroke-width:2.263;stroke-dasharray:none;stroke-opacity:1"
         id="circle1"
         cx="18.355803"
         cy="40.425121"
         r="10.114369" />
      <path
         id="path2"
         style="fill:#ffffff;fill-opacity:1;stroke:#000000;stroke-width:0;stroke-dasharray:none;stroke-opacity:1;paint-order:stroke markers fill"
         d="m 16.934122,51.269699 v 7.488434 H 9.8063919 c -0.38252,0.94505 -0.285015,1.81337 0,2.83342 h 7.1277301 v 14.51177 c 0.840043,0.39002 2.069799,0.63003 2.969845,0 v -14.51177 h 7.12928 c 0.367519,-1.00505 0.375019,-1.85087 0,-2.83342 h -7.12928 v -7.488434 c -0.954643,-0.551571 -2.227345,-0.381857 -2.969845,0 z" />
      <path
         style="fill:#ffffff;fill-opacity:1;stroke:#000000;stroke-width:0;stroke-dasharray:none;stroke-opacity:1;paint-order:stroke markers fill"
         d="M 9.800785,33.468863 5.5579269,29.374504 1.9302859,32.81122 c -0.997071,-0.381857 -1.760786,-1.0395 -2.121429,-1.972929 l 3.733715,-3.500359 -5.473287,-5.324784 2.5245,6.04607 c 0.193502,0.459214 -0.279646,0.678637 -0.509143,0.275786 L -10.649786,11.745434 c 0,0 -0.212143,-0.572786 0.318214,-0.254572 0.5303571,0.318214 16.9926419,10.585929 16.9926419,10.585929 0.381857,0.297 0,0.912214 -0.594,0.594 l -5.621785,-2.312358 5.112642,5.006573 3.585215,-3.564001 C 10.076571,22.013148 10.925143,22.989006 11.307,23.837577 L 7.5732849,27.295504 11.7525,31.389862 c -0.330017,0.990051 -0.931663,1.628978 -1.951715,2.079001 z"
         id="path3" />
      <path
         style="display:inline;fill:#ffffff;fill-opacity:1;stroke:#000000;stroke-width:0;stroke-dasharray:none;stroke-opacity:1;paint-order:stroke markers fill"
         d="m 25.49137,32.3279 11.482333,-10.979178 -6.12557,2.324963 c -0.477321,0.180321 -0.879467,-0.15196 -0.258949,-0.517906 L 47.521693,12.970891 c 0,0 0.57943,-0.193253 0.24401,0.326388 -0.33543,0.519642 -11.13724,16.636527 -11.13724,16.636527 -0.4455,0.583393 -0.84614,0.01855 -0.57421,-0.613151 l 2.4954,-5.542975 -11.044372,10.569027 C 26.50821,34.028493 25.767156,33.123436 25.49137,32.3279 Z"
         id="path4" />
      <path
         style="display:inline;fill:#ffffff;fill-opacity:1;stroke:#000000;stroke-width:0;stroke-dasharray:none;stroke-opacity:1;paint-order:stroke markers fill"
         d="m 17.022447,26.516666 -0.04475,-11.654281 -2.527868,6.044662 c -0.180321,0.450804 -0.665355,0.399013 -0.55398,-0.168469 L 18.156445,1.4437922 c 0,0 0.258469,-0.55342493 0.404736,0.04753 0.146264,0.600956 4.408538,19.5288718 4.408538,19.5288718 0.127286,0.503839 -0.638489,0.599307 -0.840025,-0.0053 L 19.82461,15.390111 19.8943,26.497412 c -0.900046,-0.135007 -1.881803,-0.115753 -2.871853,0.01925 z"
         id="path5" />
      <path
         style="display:inline;fill:#ffffff;fill-opacity:1;stroke:#000000;stroke-width:0;stroke-dasharray:none;stroke-opacity:1;paint-order:stroke markers fill"
         d="m 32.492968,38.441223 11.654315,0.03405 -6.02742,-2.568699 c -0.48263,-0.201536 -0.42179,-0.701327 0.17221,-0.552827 l 19.26552,4.391036 c 0,0 0.55167,0.262208 -0.0503,0.404409 -0.60194,0.14219 -19.55826,4.276312 -19.55826,4.276312 -0.62317,0.100768 -0.68112,-0.569493 0.011,-0.839975 l 5.64025,-2.266972 -11.107526,-0.0054 c 0.300015,-0.870044 0.210222,-1.911885 2.11e-4,-2.871934 z"
         id="path7" />
      <path
         style="display:inline;fill:#ffffff;fill-opacity:1;stroke:#000000;stroke-width:0;stroke-dasharray:none;stroke-opacity:1;paint-order:stroke markers fill"
         d="m 29.089678,48.512286 8.311185,8.169967 -2.51536,-6.049867 c -0.16126,-0.38627 0.3033,-0.571273 0.50956,-0.275008 l 10.70932,16.605775 c 0,0 0.21127,0.57311 -0.31863,0.25407 -0.52988,-0.31903 -16.97662,-10.61163 -16.97662,-10.61163 -0.647036,-0.45611 9.54e-4,-0.90596 0.594954,-0.59305 l 5.618286,2.32088 -7.940145,-7.767325 c 1.035053,-0.765039 1.347416,-1.153766 2.00745,-2.053812 z"
         id="path8" />
      <path
         style="display:inline;fill:#ffffff;fill-opacity:1;stroke:#000000;stroke-width:0;stroke-dasharray:none;stroke-opacity:1;paint-order:stroke markers fill"
         d="m 3.3755769,38.59896 -11.6623398,-0.04559 5.9463638,-2.526088 c 0.413679,-0.190929 0.259993,-0.659765 -0.190811,-0.553694 l -19.1340089,4.256969 c 0,0 -0.543346,0.258292 0.06385,0.404526 0.607163,0.146223 19.7164779,4.407543 19.7164779,4.407543 0.734673,0.180434 0.794879,-0.529419 -0.03907,-0.839581 l -5.7204056,-2.30424 11.1160766,0.07049 c -0.190929,-1.018286 -0.223419,-1.936906 -0.09613,-2.870335 z"
         id="path9" />
      <path
         style="display:inline;fill:#ffffff;fill-opacity:1;stroke:#000000;stroke-width:0;stroke-dasharray:none;stroke-opacity:1;paint-order:stroke markers fill"
         d="m 7.6340569,48.557099 -8.369291,8.122024 2.484752,-5.963758 c 0.157508,-0.491275 -0.384811,-0.53618 -0.523568,-0.262416 L -9.4763799,66.875263 c 0,0 -0.207833,0.56457 0.328499,0.24454 0.536309,-0.32 17.1771948,-10.63531 17.1771948,-10.63531 0.551571,-0.34473 -0.07933,-0.848686 -0.614988,-0.5729 l -5.700705,2.35256 7.996184,-7.722258 c -0.922821,-0.721286 -1.396891,-1.11501 -2.075748,-1.984796 z"
         id="path10" />
    </g>
  </g>
</svg>
